<svg width="347" height="322" viewBox="0 0 347 322" fill="none" xmlns="http://www.w3.org/2000/svg">
<path opacity="0.12" fill-rule="evenodd" clip-rule="evenodd" d="M91.0852 34.4059H67.5582V99.1492H67.4618V156.478H58.3162V121.12H58.0775L46.5527 77.7634L35.028 121.12H34.7893V156.478H23.8669V59.1819H6.22218V77.307L-3.86075 87.1596V96.3759H-39.6585V260.039H-3.65902H23.5602H34.7893H58.3162H70.0963H91.1688H129.803H165.865H168.436H204.436H204.516H229.021V134.749L204.516 115.855V52.1026H165.865V149.081H160.824V103.423H143.179V149.081H129.803V133.362H128.08L129.803 132.9L113.998 117.643V99.1492H91.0852V34.4059ZM-39.6586 122.266H-66.8778V260.039H-39.6586V122.266Z" fill="url(#paint0_radial)"/>
<path opacity="0.2" fill-rule="evenodd" clip-rule="evenodd" d="M58.249 178.311C58.3285 177.787 58.3698 177.248 58.3698 176.699C58.3698 171.392 54.5167 167.091 49.7637 167.091C47.3661 167.091 45.1975 168.186 43.637 169.951C41.5408 169.478 39.3548 169.226 37.1077 169.226C28.0467 169.226 19.9785 173.308 14.7888 179.661C13.7197 179.129 12.5355 178.834 11.2896 178.834C7.35768 178.834 4.04176 181.778 3.01334 185.798C2.29215 185.94 1.58108 186.11 0.881111 186.303C-2.116 181.156 -7.21891 177.767 -13.0099 177.767C-19.9368 177.767 -25.8791 182.615 -28.4108 189.523C-32.552 189.688 -36.3589 191.269 -39.43 193.833C-39.7313 193.797 -40.0371 193.779 -40.3468 193.779C-45.0999 193.779 -48.9529 198.08 -48.9529 203.387C-48.9529 205.752 -48.1868 207.919 -46.9162 209.593C-46.9241 209.836 -72.5542 206.739 -80.9833 222.126C-89.4123 237.511 -104.478 319.768 -72.5542 320.951C-40.6304 322.135 244.374 320.951 341.593 320.951C349.701 320.951 356.203 193.129 302.377 201.252C302.377 192.922 296.547 186.079 289.095 185.31C288.038 176.259 280.109 169.226 270.484 169.226C262.747 169.226 256.106 173.771 253.25 180.255C247.292 181.183 241.958 183.894 237.86 187.8C236.325 186.21 234.269 185.238 232.01 185.238C229.707 185.238 227.615 186.248 226.071 187.893C225.521 187.168 224.933 186.47 224.313 185.802C223.751 181.575 220.955 178.152 217.299 177.064C214.739 172.371 210.042 169.226 204.672 169.226C198.487 169.226 193.195 173.4 191.033 179.305C185.458 181.841 180.881 186.073 178.025 191.306C176.002 190.157 173.7 189.509 171.261 189.509C168.457 189.509 165.838 190.366 163.609 191.854C160.892 189.867 157.789 188.341 154.429 187.398C153.481 179.552 147.326 173.496 139.875 173.496C135.967 173.496 132.417 175.161 129.787 177.875C129.109 177.803 128.421 177.767 127.725 177.767C118.896 177.767 111.495 183.684 109.514 191.649C109.341 191.646 109.168 191.644 108.993 191.644C108.028 191.644 107.074 191.69 106.134 191.78C104.752 188.548 101.8 186.314 98.3796 186.306C97.1978 182.574 94.0097 179.902 90.2624 179.902C85.5096 179.902 81.6567 184.203 81.6567 189.509C81.6567 189.556 81.6567 189.602 81.6577 189.65C81.6595 189.759 81.6622 189.867 81.6668 189.976C77.689 191.048 74.3503 193.889 72.3927 197.69C70.5525 195.17 68.032 193.269 65.1331 192.32C64.2874 186.983 61.8287 182.156 58.249 178.311Z" fill="url(#paint1_radial)"/>
<path d="M92.3331 68.8991C100.433 64.7701 104.934 69.9483 112.011 69.2163C119.617 69.371 118.697 64.2934 124.62 65.563C127.669 66.2157 143.493 95.5849 145.62 118.412C148.007 144.031 127.194 160.289 118.168 188.025C112.445 205.611 120.79 230.548 122.325 237.443C119.377 237.748 105.584 237.01 95.4055 231.29C82.6825 224.14 54.8554 199.493 29.5792 195.768C6.48841 192.365 -13.9386 198.384 -41.5076 209.227C-24.1999 174.521 13.8515 165.95 35.725 146.697C57.5982 127.443 77.2961 76.5634 92.3331 68.8991Z" fill="url(#paint2_linear)"/>
<path d="M103.095 59.7919C103.528 64.4499 102.991 68.2675 100.953 70.3591C103.162 71.6984 108.561 74.3702 112.488 74.3402C117.396 74.3034 122.713 69.0518 121.386 69.1881C120.501 69.28 118.315 63.392 117.508 61.1245C113.44 60.6042 102.985 58.6142 103.095 59.7919Z" fill="#E9A99C"/>
<path d="M122.904 62.3206C122.972 59.76 121.629 52.7436 120.479 48.6059C118.953 42.7788 115.355 38.762 108.047 38.3201C100.738 37.8782 98.2473 42.5158 97.723 46.5684C96.8332 53.4427 101.7 60.521 104.573 62.6184C107.446 64.7158 122.82 65.5213 122.904 62.3206Z" fill="#F6B3A6"/>
<path d="M99.7918 51.8126C101.216 51.0429 102.967 53.0764 103.566 55.403L106.252 55.5229C104.542 53.5773 101.898 48.1729 102.269 45.5881C102.733 42.3565 105.577 40.0725 111.023 41.1013C114.789 41.813 117.997 41.0752 119.618 39.0194C121.669 36.4202 119.824 33.029 118.469 30.7817C116.639 27.7473 115.472 28.7032 113.853 30.4626C111.424 33.1015 104.92 33.3084 101.204 34.1574C94.8434 35.6108 94.3687 42.8225 94.6626 45.9759C95.0299 49.9173 98.3401 56.7384 100.343 57.7257C99.7808 55.7936 97.9728 52.797 99.7918 51.8126Z" fill="#64331E"/>
<path fill-rule="evenodd" clip-rule="evenodd" d="M97.6414 161.07C104.73 163.428 109.061 170.437 105.333 178.346C101.604 186.256 80.4006 209.225 61.0443 226.742C61.002 226.781 60.9598 226.819 60.9166 226.856C55.7672 232.837 25.1377 259.203 21.0672 261.246C17.6541 262.96 17.4071 260.306 17.1457 257.5L17.1383 257.42C22.4353 248.285 33.2604 230.397 38.2014 224.677C41.3564 221.024 47.8805 215.112 53.1107 213.98C53.1089 213.806 53.1089 213.632 53.108 213.455C53.0896 198.879 70.4571 170.786 79.9296 164.511C84.9771 161.168 90.5536 158.711 97.6414 161.07Z" fill="url(#paint3_linear)"/>
<path d="M59.8128 230.908C58.1535 229.768 43.0927 225.812 35.3758 224.969C30.7599 225.446 14.3699 253.795 12.7492 257.243C11.1284 260.69 6.00248 259.751 4.61512 261.535C3.95564 262.383 4.82383 268.567 3.67586 275.269C2.52798 281.971 5.39148 286.603 6.61668 287.663C10.5022 291.023 11.3052 270.925 16.161 264.682C27.2476 258.615 61.888 232.334 59.8128 230.908Z" fill="#EC7F1A"/>
<path d="M65.4188 153.872C66.7301 152.607 71.9759 148.178 78.2484 143.611C82.88 150.186 98.7424 157.482 109.488 157.782C109.557 158.528 108.136 172.03 106.887 177.801C97.3091 175.029 92.2184 177.907 86.2866 181.342C81.0205 158.373 72.7555 155.934 65.4188 153.872Z" fill="#2B1C3A"/>
<path fill-rule="evenodd" clip-rule="evenodd" d="M168.688 51.7554C168.748 51.6993 168.807 51.6423 168.866 51.5852C171.78 48.7762 185.114 21.4819 188.571 14.406C189.003 13.5216 189.281 12.9531 189.365 12.7876C189.968 11.5967 188.176 9.61863 186.364 9.33569C180.265 15.7656 160.056 37.5418 157.253 41.9696C156.844 42.6146 156.486 43.2102 156.177 43.7653C147.032 48.4416 126.984 62.9318 121.342 68.7231C115.228 74.9978 115.342 85.8019 121.388 93.1712C127.433 100.541 138.663 101.262 144.864 95.9184C150.04 91.4578 164.567 63.7412 168.688 51.7554Z" fill="url(#paint4_linear)"/>
<path d="M113.19 72.2835C109.297 72.6858 104.622 71.391 102.28 70.2219C97.1896 73.0996 89.2202 80.0358 85.6134 92.6355C80.0645 112.019 75.9205 141.97 75.3824 145.788C78.9048 154.829 98.3135 157.056 108.799 154.562C111.061 150.096 122.239 131.071 132.472 121.079C141.001 112.751 148.783 99.6433 143.327 84.218C139.92 74.5839 126.608 69.3294 120.404 68.2463C119.65 69.7345 117.081 71.8812 113.19 72.2835Z" fill="url(#paint5_linear)"/>
<path d="M131.756 86.9275C126.878 89.5906 115.351 92.4006 107.587 91.5835L101.784 100.82C105.799 107.242 113.84 114.688 118.39 125.013C130.126 118.942 138.078 99.768 137.829 97.0953C137.58 94.4226 137.181 90.1456 131.756 86.9275Z" fill="white"/>
<path fill-rule="evenodd" clip-rule="evenodd" d="M104.708 72.3222C108.174 78.5477 104.059 89.3189 98.9609 96.9C96.2696 100.9 89.4526 107.701 82.9937 113.654C89.5224 114.923 101.863 114.869 112.378 111.502C114.234 112.251 115.292 114.022 113.826 117.466C103.658 123.354 66.6382 133.406 59.2344 130.63C58.1665 130.23 57.2621 129.696 56.5064 129.06C56.1079 128.845 55.7488 128.561 55.4357 128.201C52.4349 124.749 53.0391 119.16 54.8453 112.274C56.4926 105.991 64.6484 87.3201 77.5899 78.4161C87.2424 71.7759 101.243 66.0968 104.708 72.3222Z" fill="url(#paint6_linear)"/>
<path fill-rule="evenodd" clip-rule="evenodd" d="M85.1671 149.561C94.0125 148.647 114.513 148.799 120.922 150.487C125.077 151.583 129.286 153.936 131.018 156.998C133.699 160.721 132.011 169.309 130.126 172.579C126.281 179.246 90.885 206.73 86.1937 209.096C82.44 210.988 81.3133 209.443 81.0241 206.338C81.4171 205.656 81.8477 204.907 82.3114 204.099C85.696 198.205 90.8418 189.243 96.0216 181.349C86.7144 184.706 77.5449 187.155 72.0382 186.575C58.509 185.151 52.3623 171.306 60.1664 159.214C65.2929 151.27 73.8903 150.539 81.9037 149.858C83.0056 149.764 84.0974 149.671 85.1671 149.561Z" fill="url(#paint7_linear)"/>
<path d="M125.954 180.534C124.046 179.227 109.762 176.094 100.89 175.13C95.5827 175.678 74.7058 207.462 72.8417 211.416C70.9777 215.371 66.337 213.498 64.742 215.545C63.9991 216.497 64.1433 221.719 63.7154 227.878C61.3574 236.115 63.8522 241.341 65.1047 242.782C69.6059 247.96 71.1779 227.106 76.7626 219.945C89.5104 212.985 128.339 182.169 125.954 180.534Z" fill="#ED8322"/>
<path d="M189.607 1.00637C188.491 1.53493 185.917 7.50507 185.965 9.8472C186.772 9.76384 188.869 11.1049 189.322 12.3219C190.548 10.9313 192.234 9.63001 193.398 8.13883C193.796 7.6273 196.585 8.25013 197.947 6.48452C199.307 4.7189 198.752 2.06367 197.17 0.695199C195.896 -0.405903 191.988 -0.121997 189.607 1.00637Z" fill="#F6B3A6"/>
<path d="M123.322 117.07C122.31 118.221 115.932 118.478 113.384 117.511C113.789 116.564 112.772 112.9 111.614 111.879L111.637 111.841C113.245 109.239 113.808 108.329 115.882 107.497C117.966 106.663 118.752 108.186 119.679 108.09C122.295 107.82 123.933 105.598 124.819 108.051C125.532 110.025 125.48 114.615 123.322 117.07Z" fill="#F6B3A6"/>
<defs>
<radialGradient id="paint0_radial" cx="0" cy="0" r="1" gradientUnits="userSpaceOnUse" gradientTransform="translate(81.0021 34.4059) rotate(90) scale(179.622 235.559)">
<stop stop-color="#485E80"/>
<stop offset="1" stop-color="#495F80" stop-opacity="0"/>
</radialGradient>
<radialGradient id="paint1_radial" cx="0" cy="0" r="1" gradientUnits="userSpaceOnUse" gradientTransform="translate(127.495 80.1014) rotate(90) scale(229.014 989.644)">
<stop stop-color="#3EB366"/>
<stop offset="1" stop-color="#3EB366" stop-opacity="0"/>
</radialGradient>
<linearGradient id="paint2_linear" x1="98.3962" y1="90.8448" x2="8.25209" y2="197.46" gradientUnits="userSpaceOnUse">
<stop offset="0.0782682" stop-color="#FF7575"/>
<stop offset="1" stop-color="#DD315D"/>
</linearGradient>
<linearGradient id="paint3_linear" x1="91.3754" y1="154.481" x2="63.5546" y2="237.031" gradientUnits="userSpaceOnUse">
<stop stop-color="#624B76"/>
<stop offset="1" stop-color="#381C51"/>
</linearGradient>
<linearGradient id="paint4_linear" x1="182.634" y1="12.4393" x2="134.704" y2="86.9025" gradientUnits="userSpaceOnUse">
<stop stop-color="#3290C4"/>
<stop offset="1" stop-color="#106CA0"/>
</linearGradient>
<linearGradient id="paint5_linear" x1="115.436" y1="77.2238" x2="129.225" y2="146.19" gradientUnits="userSpaceOnUse">
<stop stop-color="#3290C4"/>
<stop offset="1" stop-color="#106CA0"/>
</linearGradient>
<linearGradient id="paint6_linear" x1="106.954" y1="72.4576" x2="85.9352" y2="113.098" gradientUnits="userSpaceOnUse">
<stop stop-color="#3290C4"/>
<stop offset="1" stop-color="#106CA0"/>
</linearGradient>
<linearGradient id="paint7_linear" x1="107.662" y1="147.155" x2="105.193" y2="187.357" gradientUnits="userSpaceOnUse">
<stop stop-color="#624B76"/>
<stop offset="1" stop-color="#381C51"/>
</linearGradient>
</defs>
</svg>
