<svg width="360" height="275" viewBox="0 0 360 275" fill="none" xmlns="http://www.w3.org/2000/svg">
<path d="M-41.0706 192.524H286.83V274.381H-41.0706V192.524Z" fill="url(#paint0_radial)"/>
<path opacity="0.2" fill-rule="evenodd" clip-rule="evenodd" d="M142.693 195.727H-127C-115.844 154.799 -60.4307 114.76 22.8835 114.76C87.9785 114.76 139.299 143.548 162.332 172.265C184.685 154.271 220.331 140.563 253.772 140.563C300.823 140.563 350.299 165.921 360 195.727H174.707H142.693Z" fill="url(#paint1_radial)"/>
<path opacity="0.2" fill-rule="evenodd" clip-rule="evenodd" d="M46.1704 83.0569C43.4832 83.1966 41.3509 85.2394 41.3509 87.7387C41.3509 88.1311 41.4032 88.5119 41.5022 88.8758C39.5852 90.1819 38.3435 92.2755 38.3435 94.6342C38.3435 96.0116 38.7674 97.299 39.5018 98.3916C37.6964 99.7049 36.5391 101.734 36.5391 104.012C36.5391 107.652 39.496 110.659 43.327 111.121C44.5969 113.871 47.3074 115.845 50.5146 116.116L48.5685 139.317H54.5833L52.6314 116.045C55.8823 115.548 58.5375 113.29 59.5522 110.298C61.9688 109.078 63.6054 106.721 63.6054 104.012C63.6054 103.529 63.553 103.057 63.4541 102.6C65.371 101.293 66.6128 99.1995 66.6128 96.8408C66.6128 93.2551 63.7432 90.2843 59.9956 89.754C59.9966 89.7255 59.9965 89.6979 59.9965 89.6695C59.9965 87.1266 58.554 84.8933 56.378 83.6201C56.3848 83.5222 56.3877 83.4243 56.3877 83.3256C56.3877 80.7355 54.0992 78.6366 51.2752 78.6366C48.5501 78.6366 46.3227 80.5923 46.1704 83.0569Z" fill="url(#paint2_radial)"/>
<path opacity="0.2" fill-rule="evenodd" clip-rule="evenodd" d="M11.0016 54.7976C7.64424 54.9711 4.9801 57.5229 4.9801 60.6459C4.9801 61.1352 5.04558 61.6112 5.16908 62.0659C2.77444 63.6986 1.22311 66.3136 1.22311 69.2604C1.22311 70.9812 1.75232 72.5889 2.66976 73.9547C0.415103 75.5954 -1.03076 78.1312 -1.03076 80.9757C-1.03076 85.5232 2.66287 89.2788 7.44847 89.8571C9.03519 93.2924 12.4214 95.757 16.4278 96.0969L13.9969 125.081H21.5108L19.0724 96.0088C23.1338 95.3869 26.4517 92.5664 27.7196 88.8286C30.7376 87.3045 32.7817 84.3594 32.7817 80.9757C32.7817 80.3715 32.7167 79.7816 32.5925 79.2113C34.9877 77.5786 36.539 74.9637 36.539 72.0168C36.539 67.5378 32.9544 63.8258 28.2735 63.163C28.2735 63.1283 28.2735 63.0927 28.2735 63.058C28.2735 59.8816 26.4711 57.0904 23.7528 55.4996C23.7605 55.3786 23.7654 55.2558 23.7654 55.133C23.7654 51.8979 20.9057 49.2749 17.3782 49.2749C13.9735 49.2749 11.191 51.7181 11.0016 54.7976Z" fill="url(#paint3_radial)"/>
<path opacity="0.2" fill-rule="evenodd" clip-rule="evenodd" d="M243.737 45.5728C243.75 45.3851 243.756 45.1955 243.756 45.0042C243.756 39.9923 239.326 35.9288 233.86 35.9288C228.586 35.9288 224.275 39.7147 223.982 44.4855C218.78 44.7542 214.652 48.7083 214.652 53.5458C214.652 54.3048 214.754 55.0415 214.945 55.7462C211.235 58.2757 208.832 62.3267 208.832 66.892C208.832 69.5586 209.652 72.0499 211.073 74.1648C207.58 76.7077 205.34 80.635 205.34 85.0428C205.34 92.0879 211.063 97.9077 218.477 98.8037C220.935 104.125 226.181 107.944 232.389 108.471L228.622 153.376H240.263L236.486 108.334C242.778 107.371 247.918 103.001 249.883 97.2092C254.559 94.8479 257.726 90.2852 257.726 85.0428C257.726 84.1077 257.625 83.1931 257.433 82.3096C261.143 79.78 263.547 75.729 263.547 71.1628C263.547 64.2237 257.994 58.4732 250.74 57.4465C250.741 57.3922 250.741 57.337 250.741 57.2828C250.741 52.3616 247.948 48.0374 243.737 45.5728Z" fill="url(#paint4_radial)"/>
<path opacity="0.2" fill-rule="evenodd" clip-rule="evenodd" d="M180.323 78.6917C180.316 78.5689 180.311 78.4453 180.311 78.3216C180.311 75.0553 183.198 72.4083 186.758 72.4083C190.195 72.4083 193.004 74.8747 193.195 77.9826C196.584 78.1579 199.273 80.7346 199.273 83.8861C199.273 84.3808 199.207 84.8603 199.082 85.3194C201.499 86.9681 203.065 89.6071 203.065 92.5816C203.065 94.3192 202.53 95.9421 201.605 97.3195C203.881 98.9762 205.34 101.535 205.34 104.407C205.34 108.997 201.612 112.789 196.782 113.372C195.18 116.84 191.761 119.327 187.718 119.671L190.171 148.927H182.587L185.048 119.582C180.949 118.955 177.599 116.107 176.32 112.334C173.274 110.795 171.209 107.822 171.209 104.407C171.209 103.798 171.275 103.202 171.4 102.626C168.984 100.978 167.417 98.3391 167.417 95.3638C167.417 90.843 171.036 87.0963 175.761 86.4272C175.76 86.3916 175.76 86.356 175.76 86.3213C175.76 83.1146 177.58 80.2977 180.323 78.6917Z" fill="url(#paint5_radial)"/>
<path opacity="0.2" fill-rule="evenodd" clip-rule="evenodd" d="M133.808 114.556C136.173 114.679 138.049 116.476 138.049 118.675C138.049 119.02 138.003 119.355 137.916 119.675C139.603 120.826 140.695 122.666 140.695 124.741C140.695 125.954 140.322 127.086 139.676 128.048C141.263 129.203 142.282 130.988 142.282 132.992C142.282 136.194 139.681 138.839 136.31 139.247C135.193 141.666 132.808 143.402 129.987 143.641L131.699 164.053H126.407L128.124 143.579C125.264 143.141 122.928 141.155 122.035 138.523C119.91 137.449 118.469 135.375 118.469 132.992C118.469 132.567 118.516 132.151 118.603 131.75C116.916 130.599 115.824 128.759 115.824 126.683C115.824 123.529 118.348 120.915 121.645 120.448C121.645 120.423 121.645 120.399 121.645 120.374C121.645 118.137 122.914 116.171 124.829 115.051C124.823 114.966 124.82 114.879 124.82 114.792C124.82 112.514 126.834 110.667 129.317 110.667C131.715 110.667 133.675 112.388 133.808 114.556Z" fill="url(#paint6_radial)"/>
<path fill-rule="evenodd" clip-rule="evenodd" d="M69.524 44.2834C58.8702 41.5466 50.6882 50.0499 46.8902 56.8636C35.3322 77.5956 34.7239 92.9481 37.2385 97.0232C37.3384 97.1842 37.4412 97.3417 37.5479 97.4947C37.7837 98.0686 38.0825 98.671 38.4482 99.3018C42.6343 106.515 58.259 123.735 71.2916 133.877C71.8145 133.763 72.5353 133.671 73.3376 133.569C75.9472 133.236 79.4086 132.795 79.6327 131.111C74.5192 123.257 70.7726 115.813 67.4237 109.159C64.2854 102.924 61.4963 97.3817 58.259 92.8476C57.6275 91.9623 57.0173 91.1749 56.4274 90.4764C64.1661 82.426 70.8861 74.3222 75.0363 67.3154C81.3576 56.6411 80.1769 47.0203 69.524 44.2834Z" fill="url(#paint7_linear)"/>
<path fill-rule="evenodd" clip-rule="evenodd" d="M58.2483 121.157C69.1359 114.788 83.6576 120.757 93.3482 131.186C106.931 145.804 119.704 165.67 121.839 175.304C123.468 177.793 124.762 181.423 125.706 185.911C126.553 189.943 127.734 195.26 129.021 201.059C132.1 214.917 135.787 231.526 136.998 239.919C137.825 245.657 129.071 248.699 126.399 240.04C123.997 232.255 118.953 224.651 114.163 217.433C108.466 208.844 103.129 200.801 103.038 193.646C102.97 188.352 103.682 184.051 105.224 180.6C104.785 180.4 104.342 180.191 103.897 179.977C80.2651 168.548 58.2483 155.683 52.1928 142.668C49.3173 136.486 47.3606 127.525 58.2483 121.157Z" fill="url(#paint8_linear)"/>
<path fill-rule="evenodd" clip-rule="evenodd" d="M83.8586 117.861C91.8213 124.51 91.637 129.457 87.4529 144.745C83.8964 157.74 77.1027 175.158 70.8794 185.025C70.9327 187.198 69.398 190.109 66.0152 194.295C57.1987 205.205 31.3664 234.564 22.5121 241.016C17.7971 244.451 14.078 240.111 18.6782 232.272C22.6402 225.521 26.2839 217.813 29.7114 210.562C34.4504 200.536 38.7752 191.385 42.9574 186.85C46.2112 183.322 49.5794 181.003 52.9448 179.755C52.7711 179.188 52.5926 178.611 52.4063 178.028C48.5462 165.958 41.1733 135.993 54.6531 124.454C64.7036 115.85 75.8968 111.211 83.8586 117.861Z" fill="url(#paint9_linear)"/>
<path d="M59.2748 46.5354C61.313 41.7691 62.6159 33.3307 62.058 25.468C68.3095 26.4886 74.8452 29.4665 77.0998 34.4411C75.9424 38.2261 76.3363 43.7763 78.0185 47.3914C76.1908 48.4297 65.2827 50.8214 59.2748 46.5354Z" fill="#EBB89C"/>
<path d="M81.6127 40.7976C84.0807 39.0492 86.5885 32.1733 87.4538 24.3141C88.3192 16.4546 86.0287 11.2102 76.7864 9.61267C69.4057 8.33686 63.2086 11.6864 61.2732 18.7994C59.4445 25.5171 60.9579 30.5895 63.1902 33.7063C66.0142 37.6497 79.1448 42.5468 81.6127 40.7976Z" fill="#F6C3A6"/>
<path d="M58.4123 16.9079C57.804 21.3042 58.9041 26.7065 61.3974 30.4577C61.0714 27.5936 59.5813 22.4107 62.1929 21.5175C64.8044 20.6242 66.9658 23.307 66.8533 26.1567L68.5957 26.622C68.0795 24.839 66.1742 21.2286 68.0883 17.2307C69.0477 15.2249 70.8502 12.8356 76.1655 13.4248C81.4264 14.0079 83.5685 17.5688 88.9061 15.6598C92.0328 14.5415 94.6492 8.97043 93.8488 4.94521C89.8054 6.59365 86.2673 6.2648 83.5141 5.76938C80.7619 5.27406 79.3116 3.60054 70.4835 4.12104C61.6554 4.64154 59.0303 12.4452 58.4123 16.9079Z" fill="#714949"/>
<path d="M90.5437 127.216C85.0034 101.572 93.9498 96.1174 96.3014 74.469C97.6954 61.6308 88.3706 49.7892 77.5684 45.3316C73.0757 46.1555 69.0313 46.1555 60.4943 43.6829C51.9572 46.5674 44.9064 51.3792 42.9448 67.3839C40.1528 90.1525 55.5088 98.5936 50.9221 128.155C63.4318 132.777 80.1149 132.771 90.5437 127.216Z" fill="url(#paint10_linear)"/>
<path fill-rule="evenodd" clip-rule="evenodd" d="M60.8899 47.4394C48.9254 50.9646 49.1253 63.5216 51.2673 71.6948C55.1245 86.4147 62.4897 96.8782 69.3571 102.958C69.4571 103.221 69.5803 103.486 69.7268 103.755C72.3335 108.537 77.8205 111.356 83.8022 109.971C92.7758 107.893 118.197 96.1886 132.91 88.1417C132.802 86.1051 131.595 82.8344 129.17 82.1013C118.431 85.4627 109.284 86.7653 101.232 87.9122C96.7339 88.5537 92.5779 89.1454 88.6751 90.02C88.5238 80.2132 87.5003 72.1352 85.0799 64.0768C81.2265 51.252 72.8544 43.9151 60.8899 47.4394Z" fill="url(#paint11_linear)"/>
<path d="M119.804 0L152.606 59.3425L137.778 77.0627L65.8851 51.9246L119.804 0Z" fill="url(#paint12_linear)"/>
<path d="M155.232 61.2714C155.959 60.3843 156.52 58.8771 155.284 58.2543C154.047 57.6305 153.324 58.4295 152.961 58.8735C152.041 59.9946 134.895 80.5575 134.169 81.4446C133.442 82.3317 135.473 83.1761 136.635 82.8664C137.796 82.5568 154.505 62.1585 155.232 61.2714Z" fill="#3E3E3E"/>
<path d="M134.271 75.4105C131.73 75.7406 131.8 79.5345 129.088 82.1067C129.764 84.2368 130.439 86.3668 132.905 87.7887C139.582 87.3945 144.74 87.2539 148.587 80.8344C151.881 75.3349 150.531 71.0739 148.934 70.807C145.741 70.2713 144.342 77.2994 139.929 77.3671C137.171 77.4089 137.093 75.0422 134.271 75.4105Z" fill="#F6C3A6"/>
<path d="M125.564 251.326C124.31 250.135 122.427 241.406 123.995 239.918C125.564 238.43 127.133 241.406 131.315 239.918C135.498 238.43 134.452 231.983 137.066 233.47C139.68 234.958 143.34 238.43 152.751 238.926C163.191 239.476 168.572 239.475 165.821 243.39C161.639 249.342 150.137 249.342 145.954 249.342C141.772 249.342 137.589 252.318 133.929 252.813C129.746 253.381 127.133 252.813 125.564 251.326Z" fill="#2E3642"/>
<path d="M13.4446 234.912C14.3412 233.514 18.2167 228.654 20.4235 228.79C22.6304 228.926 21.3043 231.894 25.2265 233.831C29.1477 235.767 33.5647 230.957 34.1031 233.701C34.6405 236.445 32.4112 239.322 39.3359 245.15C41.7961 247.219 53.8062 254.388 51.669 255.023C44.5154 257.144 34.9189 255.418 27.9195 251.149C24.4465 249.03 23.5559 246.564 14.9959 242.198C11.3141 240.319 12.2632 236.756 13.4446 234.912Z" fill="#2E3642"/>
<defs>
<radialGradient id="paint0_radial" cx="0" cy="0" r="1" gradientUnits="userSpaceOnUse" gradientTransform="translate(122.88 173.92) rotate(90) scale(88.2351 174.093)">
<stop stop-color="#325362" stop-opacity="0.1"/>
<stop offset="1" stop-color="#517281" stop-opacity="0"/>
</radialGradient>
<radialGradient id="paint1_radial" cx="0" cy="0" r="1" gradientUnits="userSpaceOnUse" gradientTransform="translate(116.506 69.1386) rotate(90) scale(120.106 1097.86)">
<stop stop-color="#3EB366"/>
<stop offset="1" stop-color="#3EB366" stop-opacity="0"/>
</radialGradient>
<radialGradient id="paint2_radial" cx="0" cy="0" r="1" gradientUnits="userSpaceOnUse" gradientTransform="translate(51.5759 44.4454) rotate(90) scale(90.013 67.7957)">
<stop stop-color="#3EB366"/>
<stop offset="1" stop-color="#3EB366" stop-opacity="0"/>
</radialGradient>
<radialGradient id="paint3_radial" cx="0" cy="0" r="1" gradientUnits="userSpaceOnUse" gradientTransform="translate(17.7545 6.5611) rotate(90) scale(112.451 84.6942)">
<stop stop-color="#3EB366"/>
<stop offset="1" stop-color="#3EB366" stop-opacity="0"/>
</radialGradient>
<radialGradient id="paint4_radial" cx="0" cy="0" r="1" gradientUnits="userSpaceOnUse" gradientTransform="translate(234.444 -30.2478) rotate(90) scale(174.22 131.217)">
<stop stop-color="#3EB366"/>
<stop offset="1" stop-color="#3EB366" stop-opacity="0"/>
</radialGradient>
<radialGradient id="paint5_radial" cx="0" cy="0" r="1" gradientUnits="userSpaceOnUse" gradientTransform="translate(186.378 29.293) rotate(90) scale(113.508 85.4904)">
<stop stop-color="#3EB366"/>
<stop offset="1" stop-color="#3EB366" stop-opacity="0"/>
</radialGradient>
<radialGradient id="paint6_radial" cx="0" cy="0" r="1" gradientUnits="userSpaceOnUse" gradientTransform="translate(129.053 80.5868) rotate(90) scale(79.1915 59.6449)">
<stop stop-color="#3EB366"/>
<stop offset="1" stop-color="#3EB366" stop-opacity="0"/>
</radialGradient>
<linearGradient id="paint7_linear" x1="104.102" y1="87.7084" x2="71.6408" y2="118.134" gradientUnits="userSpaceOnUse">
<stop stop-color="#EC5642"/>
<stop offset="1" stop-color="#BF2C2C"/>
</linearGradient>
<linearGradient id="paint8_linear" x1="93.4966" y1="118.535" x2="93.4966" y2="245.443" gradientUnits="userSpaceOnUse">
<stop stop-color="#4380B8"/>
<stop offset="1" stop-color="#1D568A"/>
</linearGradient>
<linearGradient id="paint9_linear" x1="66.2577" y1="123.015" x2="70.0143" y2="192.549" gradientUnits="userSpaceOnUse">
<stop stop-color="#4380B8"/>
<stop offset="1" stop-color="#1D568A"/>
</linearGradient>
<linearGradient id="paint10_linear" x1="83.8033" y1="43.988" x2="86.1063" y2="93.4648" gradientUnits="userSpaceOnUse">
<stop stop-color="#EC5642"/>
<stop offset="1" stop-color="#D03838"/>
</linearGradient>
<linearGradient id="paint11_linear" x1="72.8554" y1="85.6006" x2="141.601" y2="88.2951" gradientUnits="userSpaceOnUse">
<stop stop-color="#EC5642"/>
<stop offset="1" stop-color="#D03838"/>
</linearGradient>
<linearGradient id="paint12_linear" x1="148.562" y1="70.0568" x2="110.082" y2="31.7098" gradientUnits="userSpaceOnUse">
<stop stop-color="#A8EAFF" stop-opacity="0.22"/>
<stop offset="1" stop-color="#A8EAFF" stop-opacity="0"/>
</linearGradient>
</defs>
</svg>
