<svg width="360" height="244" viewBox="0 0 360 244" fill="none" xmlns="http://www.w3.org/2000/svg">
<path fill-rule="evenodd" clip-rule="evenodd" d="M60.5245 38.7925L149.469 99.2487H127.506V179.514H-5.76945V99.2487H-28.4199L10.7178 72.6465V53.8212H32.0143V58.1715L60.5245 38.7925ZM317.044 107.789H360L260.856 70.2926L164.614 106.691H162.339V107.552L161.712 107.789H162.339V179.895H317.044V107.789Z" fill="url(#paint0_linear)"/>
<path d="M223.216 178.507H-93.6614V243.223H223.216V178.507Z" fill="url(#paint1_radial)"/>
<path d="M6.62982 104.243H-23.2441V143.497H6.62982V104.243Z" fill="url(#paint2_linear)"/>
<path d="M62.1105 104.243H32.2366V143.497H62.1105V104.243Z" fill="url(#paint3_linear)"/>
<path d="M185.874 121.218H146.397V159.411H185.874V121.218Z" fill="url(#paint4_linear)"/>
<path opacity="0.2" fill-rule="evenodd" clip-rule="evenodd" d="M180.539 183.812C180.539 175.573 175.198 168.717 168.147 167.27C164.72 159.887 157.78 154.838 149.777 154.838C149.522 154.838 149.268 154.844 149.015 154.854C146.716 148.804 141.319 144.557 135.028 144.557C128.078 144.557 122.219 149.742 120.424 156.814C119.823 156.744 119.213 156.708 118.594 156.708C113.659 156.708 109.206 159.003 106.058 162.684C104.791 162.442 103.489 162.316 102.16 162.316C89.5926 162.316 80.2476 169.875 80.2476 183.812C112.273 183.812 137.557 183.812 180.539 183.812Z" fill="url(#paint5_radial)"/>
<path opacity="0.2" fill-rule="evenodd" clip-rule="evenodd" d="M-115 183.812C-115 173.791 -108.523 165.454 -99.9716 163.693C-95.8152 154.715 -87.3991 148.574 -77.6934 148.574C-77.3838 148.574 -77.0754 148.58 -76.7685 148.593C-73.9811 141.236 -67.4363 136.07 -59.8067 136.07C-51.3769 136.07 -44.2714 142.375 -42.0949 150.977C-41.3657 150.891 -40.6253 150.847 -39.8758 150.847C-33.8895 150.847 -28.4896 153.64 -24.6713 158.116C-23.1356 157.822 -21.5564 157.668 -19.9449 157.668C-4.70364 157.668 6.62988 166.861 6.62988 183.812C-32.21 183.812 -62.873 183.812 -115 183.812Z" fill="url(#paint6_radial)"/>
<path d="M37.261 28.326C36.9013 32.7005 35.7343 36.1281 33.3906 37.6991C35.324 39.3239 40.1511 42.7394 43.9935 43.4042C48.796 44.234 54.8739 40.3247 53.5541 40.2171C52.6742 40.1459 51.5281 34.3288 51.1214 32.0938C47.2345 30.8977 37.3517 27.2193 37.261 28.326Z" fill="#E9A99C"/>
<path d="M56.1935 32.0695C56.6893 29.7181 56.5584 23.0079 56.1298 18.9875C55.6183 13.3423 52.7771 9.00189 45.7102 7.30728C38.6426 5.61258 35.4295 9.45297 34.2354 13.1003C32.2103 19.287 35.7752 26.6751 38.2297 29.1158C40.6842 31.5574 55.5729 35.0075 56.1935 32.0695Z" fill="#F6B3A6"/>
<path d="M35.3746 18.3036C36.896 17.8436 38.2647 20.0291 38.4593 22.2806L41.064 23.3013C39.7198 21.2052 37.4756 15.3274 38.8425 12.996C40.9208 9.45135 42.54 9.12726 48.1509 10.3982C51.8554 11.2374 54.5386 12.009 56.4685 10.3982C58.91 8.36067 59.1037 5.46862 58.1575 3.15585C56.8788 0.0339642 55.3923 -0.700331 53.5147 0.63772C50.6971 2.6448 46.7613 0.217968 41.064 1.07959C32.5037 2.37407 31.5872 9.05322 31.3436 12.0145C31.0399 15.7162 33.1278 22.5931 34.9189 23.856C34.6946 21.9751 33.4315 18.8912 35.3746 18.3036Z" fill="#52385E"/>
<path d="M62.7776 92.1152V92.0839C62.7034 87.9238 66.8644 84.859 70.9111 83.2698C74.9569 81.6805 106.673 81.5399 109.928 81.5399C111.733 82.4304 111.733 84.3868 111.733 86.6045C90.2121 93.7626 77.9604 100.107 68.6861 99.2186C62.8946 98.6631 62.8518 96.2562 62.7776 92.1152Z" fill="url(#paint7_linear)"/>
<path fill-rule="evenodd" clip-rule="evenodd" d="M56.4693 109.371C61.1122 109.371 66.8155 110.63 68.1248 130.043C69.2587 146.86 58.6698 178.772 50.6263 183.506C41.2603 192.415 12.0783 214.97 8.65746 213.131C5.21047 211.278 7.94869 207.329 10.8877 203.089C11.2246 202.603 11.5641 202.114 11.8976 201.622C12.9808 200.026 14.2605 197.999 15.6667 195.769C20.7512 187.707 27.5064 176.998 32.7306 174.463C34.3934 173.655 36.0964 172.951 37.7636 172.395C36.2142 158.143 38.5439 128.715 40.8518 121.122C43.5106 112.38 48.8718 109.371 56.4693 109.371Z" fill="url(#paint8_linear)"/>
<path fill-rule="evenodd" clip-rule="evenodd" d="M42.1182 116.086C48.4492 122.382 53.9798 128.74 58.579 135.393C59.2764 136.4 60.412 137.941 61.8156 139.844C68.7087 149.191 82.0471 167.277 81.43 173.909C84.6693 184.852 91.0544 221.003 87.6327 223.112C84.7871 224.866 83.8409 223.408 82.9314 222.006C82.6486 221.57 82.3692 221.14 82.0375 220.813C77.1363 215.979 61.9884 188.161 62.4545 180.804C62.5549 179.213 62.7085 177.656 62.9294 176.182C62.7714 176.15 62.6143 176.119 62.4572 176.088L62.3777 176.071C55.4855 174.688 35.4189 165.806 24.391 145.045C19.1607 135.199 20.1697 124.48 23.9685 117.765C27.7673 111.05 35.7873 109.79 42.1182 116.086Z" fill="url(#paint9_linear)"/>
<path d="M92.5175 230.493C90.2053 226.647 90.9175 222.535 90.9175 212.456C86.6492 213.518 81.315 214.578 75.98 215.639C78.6475 223.065 80.7817 226.248 80.2484 231.553C79.715 236.858 80.6918 239.564 83.4518 239.564C91.0659 239.564 103.936 245.716 110.122 239.564C113.323 236.381 94.8307 234.338 92.5175 230.493Z" fill="#5F3B2C"/>
<path d="M5.56226 222.005C8.22978 218.205 10.8973 216.169 17.299 212.641C15.1648 209.274 11.9639 205.56 9.2973 202.378C5.56226 207.152 3.66462 209.922 -3.20754 212.641C-8.58961 214.77 -10.082 219.339 -7.24049 222.535C-4.39893 225.731 -5.64008 234.736 -1.90608 237.919C0.0919352 239.622 8.78667 239.443 12.4973 238.98C16.2087 238.516 14.0981 235.266 7.69645 233.144C4.04695 231.935 3.77898 224.546 5.56226 222.005Z" fill="#5F3B2C"/>
<path d="M43.8068 42.1883C37.4758 41.3489 35.5223 37.3381 32.833 37.5716C26.2323 38.1435 18.434 39.5618 15.5282 43.0276C10.0404 56.8776 11.7294 62.7529 13.4175 70.3076C16.2413 82.9434 24.3914 105.142 26.502 114.376C35.7606 119.439 57.5275 120.74 65.3328 115.215C66.7216 110.612 66.8001 107.959 69.9756 95.0697C72.9373 83.0467 77.2275 74.9243 75.0401 58.9755C73.7744 49.7421 64.9103 40.0895 52.67 40.0895C48.9664 42.8514 47.8447 42.7238 43.8068 42.1883Z" fill="url(#paint10_linear)"/>
<path d="M122.312 35.0527C120.712 35.0527 93.5335 30.0168 80.5276 30.0168V3.99536C92.033 3.99536 110.22 7.21619 121.475 10.4461C121.475 17.9 122.312 25.8601 122.312 35.0527Z" fill="url(#paint11_linear)"/>
<path d="M67.0207 9.87112C67.994 8.8773 77.6873 4.90637 80.5267 3.99536V32.5347H67.0207C66.3713 24.2526 66.0474 10.8649 67.0207 9.87112Z" fill="url(#paint12_linear)"/>
<path d="M132.726 81.4826C129.763 81.4826 94.3016 85.6254 70.2285 85.6254V28.0839C87.2802 28.0839 119.78 31.6954 131.176 35.892C131.176 49.7022 132.726 64.4506 132.726 81.4826Z" fill="url(#paint13_linear)"/>
<path d="M51.7106 35.4494C53.5628 33.6076 64.8273 29.7712 70.2287 28.0839V85.6254L53.1002 83.7845C51.8651 68.4398 49.8592 37.2903 51.7106 35.4494Z" fill="url(#paint14_linear)"/>
<path fill-rule="evenodd" clip-rule="evenodd" d="M11.7291 45.1254C18.4817 38.3136 24.8502 40.0088 29.4563 45.1254C37.149 53.6731 40.4214 74.1492 41.2891 83.9441C46.0262 83.7306 55.4742 84.2592 63.7927 84.7244C71.8668 85.1766 78.8787 85.569 79.4871 85.1654C81.7932 85.4171 83.0589 87.935 82.2646 91.15C80.8627 91.15 76.1038 92.6099 70.0181 94.4777C59.8142 97.6085 45.8804 101.884 37.788 102.338C33.778 103.689 28.7004 101.132 24.687 96.5305C20.3732 91.5839 12.4003 81.9383 8.35192 73.2456C4.26511 64.4697 4.97563 51.938 11.7291 45.1254Z" fill="url(#paint15_linear)"/>
<path d="M85.1703 81.6396C84.0442 83.3183 81.0896 84.7174 79.6833 85.417C81.7931 86.6755 81.3715 88.7743 81.7931 90.873C82.1309 90.873 88.1241 89.8931 91.0788 89.6136C91.6418 89.1944 93.5272 88.6068 94.8775 86.2563C96.5657 83.3183 95.7216 77.0229 94.8775 76.6028C94.2019 76.2669 88.969 76.8832 86.4359 77.4422C85.8738 77.8622 86.2954 79.961 85.1703 81.6396Z" fill="#F6B3A6"/>
<path d="M114.293 81.2196C113.294 82.6916 112.587 82.7055 111.338 83.3183C111.761 84.1576 111.761 84.9969 111.338 86.6756C111.639 86.6756 117.565 85.398 120.187 85.1523C120.686 84.7852 122.359 84.2696 123.558 82.2099C125.057 79.6347 124.307 74.117 123.558 73.749C122.958 73.4548 118.314 73.9938 116.066 74.4842C115.567 74.8522 115.292 79.7484 114.293 81.2196Z" fill="#F6B3A6"/>
<defs>
<linearGradient id="paint0_linear" x1="165.79" y1="38.7925" x2="165.736" y2="189.513" gradientUnits="userSpaceOnUse">
<stop stop-color="#2B485C" stop-opacity="0.06"/>
<stop offset="1" stop-color="#2B485C" stop-opacity="0"/>
</linearGradient>
<radialGradient id="paint1_radial" cx="0" cy="0" r="1" gradientUnits="userSpaceOnUse" gradientTransform="translate(64.7778 163.799) rotate(90) scale(69.7589 168.241)">
<stop stop-color="#325362" stop-opacity="0.1"/>
<stop offset="1" stop-color="#517281" stop-opacity="0"/>
</radialGradient>
<linearGradient id="paint2_linear" x1="-8.30712" y1="104.243" x2="-8.36235" y2="146.286" gradientUnits="userSpaceOnUse">
<stop stop-color="white"/>
<stop offset="1" stop-color="white" stop-opacity="0"/>
</linearGradient>
<linearGradient id="paint3_linear" x1="47.1733" y1="104.243" x2="47.118" y2="146.286" gradientUnits="userSpaceOnUse">
<stop stop-color="white"/>
<stop offset="1" stop-color="white" stop-opacity="0"/>
</linearGradient>
<linearGradient id="paint4_linear" x1="166.136" y1="121.218" x2="166.096" y2="162.125" gradientUnits="userSpaceOnUse">
<stop stop-color="white"/>
<stop offset="1" stop-color="white" stop-opacity="0"/>
</linearGradient>
<radialGradient id="paint5_radial" cx="0" cy="0" r="1" gradientUnits="userSpaceOnUse" gradientTransform="translate(130.392 122.44) rotate(90) scale(58.2291 226.088)">
<stop stop-color="#3EB366"/>
<stop offset="1" stop-color="#3EB366" stop-opacity="0"/>
</radialGradient>
<radialGradient id="paint6_radial" cx="0" cy="0" r="1" gradientUnits="userSpaceOnUse" gradientTransform="translate(-54.1838 109.17) rotate(90) scale(70.8191 274.193)">
<stop stop-color="#3EB366"/>
<stop offset="1" stop-color="#3EB366" stop-opacity="0"/>
</radialGradient>
<linearGradient id="paint7_linear" x1="106.251" y1="103.076" x2="69.2641" y2="93.4626" gradientUnits="userSpaceOnUse">
<stop stop-color="#753CD3"/>
<stop offset="1" stop-color="#4C259D"/>
</linearGradient>
<linearGradient id="paint8_linear" x1="51.974" y1="121.748" x2="0.348875" y2="206.797" gradientUnits="userSpaceOnUse">
<stop stop-color="#FFBD59"/>
<stop offset="1" stop-color="#EC882C"/>
</linearGradient>
<linearGradient id="paint9_linear" x1="7.69632" y1="120.156" x2="73.2162" y2="189.502" gradientUnits="userSpaceOnUse">
<stop stop-color="#FFBD59"/>
<stop offset="1" stop-color="#EC882C"/>
</linearGradient>
<linearGradient id="paint10_linear" x1="53.37" y1="85.9848" x2="70.9673" y2="132.374" gradientUnits="userSpaceOnUse">
<stop stop-color="#753CD3"/>
<stop offset="1" stop-color="#4C259D"/>
</linearGradient>
<linearGradient id="paint11_linear" x1="108.895" y1="-1.07762" x2="88.3507" y2="35.0581" gradientUnits="userSpaceOnUse">
<stop stop-color="#FACB85"/>
<stop offset="1" stop-color="#DCA470"/>
</linearGradient>
<linearGradient id="paint12_linear" x1="80.6158" y1="4.1325" x2="62.2755" y2="8.85784" gradientUnits="userSpaceOnUse">
<stop stop-color="#FACB85"/>
<stop offset="1" stop-color="#DCA470"/>
</linearGradient>
<linearGradient id="paint13_linear" x1="122.735" y1="18.6847" x2="101.847" y2="85.4846" gradientUnits="userSpaceOnUse">
<stop stop-color="#FACB85"/>
<stop offset="1" stop-color="#D99D65"/>
</linearGradient>
<linearGradient id="paint14_linear" x1="70.3971" y1="28.3382" x2="35.6281" y2="37.5345" gradientUnits="userSpaceOnUse">
<stop stop-color="#FACB85"/>
<stop offset="1" stop-color="#DCA470"/>
</linearGradient>
<linearGradient id="paint15_linear" x1="12.5505" y1="59.8469" x2="66.4651" y2="92.9405" gradientUnits="userSpaceOnUse">
<stop stop-color="#753CD3"/>
<stop offset="1" stop-color="#4C259D"/>
</linearGradient>
</defs>
</svg>
